<svg width="32" height="32" viewBox="0 0 32 32" fill="none" xmlns="http://www.w3.org/2000/svg">
<path d="M16 2.66669C8.63996 2.66669 2.66663 8.64002 2.66663 16C2.66663 23.36 8.63996 29.3334 16 29.3334C23.36 29.3334 29.3333 23.36 29.3333 16C29.3333 8.64002 23.36 2.66669 16 2.66669ZM9.79996 24.6667C11.5466 23.4134 13.68 22.6667 16 22.6667C18.32 22.6667 20.4533 23.4134 22.2 24.6667C20.4533 25.92 18.32 26.6667 16 26.6667C13.68 26.6667 11.5466 25.92 9.79996 24.6667ZM24.1866 22.8267C21.9333 21.0667 19.0933 20 16 20C12.9066 20 10.0666 21.0667 7.81329 22.8267C6.26663 20.9734 5.33329 18.6 5.33329 16C5.33329 10.1067 10.1066 5.33335 16 5.33335C21.8933 5.33335 26.6666 10.1067 26.6666 16C26.6666 18.6 25.7333 20.9734 24.1866 22.8267Z" fill="#065BDA"/>
<path d="M15.9999 8C13.4266 8 11.3333 10.0933 11.3333 12.6667C11.3333 15.24 13.4266 17.3333 15.9999 17.3333C18.5733 17.3333 20.6666 15.24 20.6666 12.6667C20.6666 10.0933 18.5733 8 15.9999 8ZM15.9999 14.6667C14.8933 14.6667 13.9999 13.7733 13.9999 12.6667C13.9999 11.56 14.8933 10.6667 15.9999 10.6667C17.1066 10.6667 17.9999 11.56 17.9999 12.6667C17.9999 13.7733 17.1066 14.6667 15.9999 14.6667Z" fill="#065BDA"/>
</svg>
