<svg width="32" height="32" viewBox="0 0 32 32" fill="none" xmlns="http://www.w3.org/2000/svg">
<path d="M28 10.6667C26.0667 10.6667 24.9867 12.5867 25.4267 14.0134L20.6934 18.76C20.2934 18.64 19.7067 18.64 19.3067 18.76L15.9067 15.36C16.36 13.9334 15.28 12 13.3334 12C11.4 12 10.3067 13.92 10.76 15.36L4.68004 21.4267C3.25337 20.9867 1.33337 22.0667 1.33337 24C1.33337 25.4667 2.53337 26.6667 4.00004 26.6667C5.93337 26.6667 7.01337 24.7467 6.57337 23.32L12.64 17.24C13.04 17.36 13.6267 17.36 14.0267 17.24L17.4267 20.64C16.9734 22.0667 18.0534 24 20 24C21.9334 24 23.0267 22.08 22.5734 20.64L27.32 15.9067C28.7467 16.3467 30.6667 15.2667 30.6667 13.3334C30.6667 11.8667 29.4667 10.6667 28 10.6667Z" fill="#065BDA"/>
<path d="M20 12L21.2533 9.24L24 8L21.2533 6.76L20 4L18.7733 6.76L16 8L18.7733 9.24L20 12Z" fill="#065BDA"/>
<path d="M4.66671 14.6667L5.33337 12L8.00004 11.3333L5.33337 10.6667L4.66671 8L4.00004 10.6667L1.33337 11.3333L4.00004 12L4.66671 14.6667Z" fill="#065BDA"/>
</svg>
