<svg width="24" height="24" viewBox="0 0 24 24" fill="none" xmlns="http://www.w3.org/2000/svg">
<path d="M20.5423 7.05909C20.1364 6.85182 19.7132 6.67909 19.2727 6.53227V16.9218C18.2882 16.5677 17.2777 16.3864 16.25 16.3864C14.6091 16.3864 12.9855 16.8527 11.5 17.7509V7.30091C10.1009 6.49773 8.48591 6.02273 6.75 6.02273C5.20409 6.02273 3.74455 6.40273 2.45773 7.05909C2.17273 7.19727 2 7.49955 2 7.81909V18.2518C2 18.7527 2.40591 19.1068 2.86364 19.1068C3.00182 19.1068 3.14 19.0723 3.27818 19.0032C4.32318 18.4591 5.49773 18.1136 6.75 18.1136C8.53773 18.1136 10.1873 18.8218 11.5 19.8409C12.8127 18.8218 14.4623 18.1136 16.25 18.1136C17.5023 18.1136 18.6768 18.4591 19.7218 19.0118C19.86 19.0809 19.9982 19.1155 20.1364 19.1155C20.5855 19.1155 21 18.7614 21 18.2605V7.81909C21 7.49955 20.8273 7.19727 20.5423 7.05909ZM9.77273 16.9218C8.78818 16.5677 7.77773 16.3864 6.75 16.3864C5.72227 16.3864 4.71182 16.5677 3.72727 16.9218V8.36318C4.68591 7.95727 5.69636 7.75 6.75 7.75C7.78636 7.75 8.81409 7.96591 9.77273 8.37182V16.9218ZM17.5455 3L13.2273 7.31818V15.5227L17.5455 11.6364V3Z" fill="black" fill-opacity="0.6"/>
</svg>
